<?xml version="1.0" ?><!DOCTYPE svg  PUBLIC '-//W3C//DTD SVG 1.1//EN'  'http://www.w3.org/Graphics/SVG/1.1/DTD/svg11.dtd'><svg enable-background="new 0 0 512 512" height="512px" id="Layer_1" version="1.1" viewBox="0 0 512 512" width="512px" xml:space="preserve" xmlns="http://www.w3.org/2000/svg" xmlns:xlink="http://www.w3.org/1999/xlink"><path d="M492.668,442.732c0,34.171-27.702,61.872-61.873,61.872H81.052c-34.171,0-61.875-27.701-61.875-61.872  V92.987c0-34.171,27.704-61.873,61.875-61.873h349.743c34.171,0,61.873,27.701,61.873,61.873V442.732z" fill="#0A5772"/><path d="M492.668,417.988c0,34.172-27.702,61.873-61.873,61.873H81.052c-34.171,0-61.875-27.701-61.875-61.873  V68.243c0-34.17,27.704-61.872,61.875-61.872h349.743c34.171,0,61.873,27.702,61.873,61.872V417.988z" fill="#0083BE"/><path d="M492.668,270.215c-0.147-0.146-0.295-0.291-0.441-0.438c-8.232-8.43-16.668-16.669-25-25  c-8.232-8.429-16.668-16.668-25-25c-8.232-8.429-16.668-16.668-25-25c-16.395-16.784-33.215-33.167-49.776-49.788  c-13.661-13.708-30.871-23.495-49.251-29.354c-20.333-6.481-41.97-8.222-63.181-6.505c-18.605,1.506-37.001,5.869-54.116,13.367  c-15.715,6.883-30.271,16.386-42.757,28.164c-12.007,11.326-22.048,24.707-29.522,39.427c-7.482,14.736-12.363,30.758-14.415,47.156  c-2.454,19.621-1.05,39.864,5.402,58.624c3.22,9.363,7.67,18.295,13.234,26.486c2.718,4.002,5.697,7.828,8.907,11.447  c3.556,4.009,7.439,7.711,11.215,11.508c16.622,16.712,33.378,33.289,50,50c16.622,16.712,33.378,33.289,50,50  c8.312,8.357,16.689,16.645,25,25c3.176,3.193,6.364,6.373,9.554,9.553h143.275c34.171,0,61.873-27.701,61.873-61.873V270.215z" fill="#0064A2"/><g><path d="M321.727,362.975c-25.23,10.4-47.107,13.853-77.408,13.853c-69.824,0-131.24-45.862-131.24-121.396   c0-78.644,62.68-146.916,157.332-146.916c74.459,0,127.463,46.651,127.463,111.434c0,56.681-34.484,92.139-79.924,92.139   c-19.779,0-34.074-9.656-36.174-29.689h-0.842c-13.461,19.303-31.98,29.689-54.697,29.689c-26.93,0-47.115-18.867-47.115-50.531   c0-47.38,38.283-89.802,98.867-89.802c18.508,0,39.545,4.252,50.053,9.265l-12.629,71.688c-4.188,22.752-1.25,33.153,10.523,33.542   c18.098,0.787,40.822-20.443,40.822-65.175c0-50.471-35.354-89.006-100.553-89.006c-64.785,0-120.742,45.871-120.742,119.895   c0,64.755,44.605,100.992,107.277,100.992c21.457,0,44.592-4.254,61.422-11.943L321.727,362.975z M284.299,203.739   c-3.365-0.74-7.996-1.527-13.047-1.527c-27.768,0-49.639,25.07-49.639,54.749c0,14.642,7.154,23.907,21.031,23.907   c15.564,0,31.975-18.113,35.762-40.488L284.299,203.739z" fill="#FFFFFF"/></g></svg>