<?xml version="1.0" ?><!DOCTYPE svg  PUBLIC '-//W3C//DTD SVG 1.1//EN'  'http://www.w3.org/Graphics/SVG/1.1/DTD/svg11.dtd'><svg enable-background="new 0 0 48 48" height="48px" version="1.1" viewBox="0 0 48 48" width="48px" xml:space="preserve" xmlns="http://www.w3.org/2000/svg" xmlns:xlink="http://www.w3.org/1999/xlink"><g id="Layer_3"><path d="M47.641,31.641l0.008-0.002L44.369,17.82c-0.057-0.307-0.129-0.606-0.213-0.901l-0.03-0.122l0,0   c-1.262-4.25-5.189-7.354-9.849-7.354c-2.101,0-4.053,0.633-5.68,1.714H19.4c-1.626-1.081-3.578-1.714-5.676-1.714   c-5.12,0-9.354,3.75-10.136,8.647H3.58L0.224,32.064c-0.042,0.16-0.086,0.318-0.114,0.48l-0.031,0.129l0.016,0.016   c-0.035,0.242-0.074,0.48-0.074,0.73c0,2.84,2.3,5.139,5.138,5.139c1.291,0,2.456-0.49,3.353-1.279l0.001,0.004l9.047-7.43h12.888   l8.791,7.164c0.254,0.258,0.539,0.49,0.846,0.691l0.155,0.125v-0.031c0.762,0.463,1.638,0.756,2.597,0.756   c2.84,0,5.142-2.299,5.142-5.139C47.979,32.791,47.85,32.197,47.641,31.641z M34.77,13.142c1.263,0,2.282,1.023,2.282,2.284   c0,1.265-1.02,2.286-2.282,2.286c-1.266,0-2.286-1.021-2.286-2.286C32.483,14.166,33.504,13.142,34.77,13.142z M20.165,19.928   c0,1.263-1.021,2.286-2.284,2.286h-2.287v2.284c0,1.261-1.021,2.285-2.284,2.285c-1.264,0-2.287-1.023-2.287-2.285v-2.284H8.738   c-1.264,0-2.286-1.023-2.286-2.286l0,0c0-1.263,1.022-2.286,2.286-2.286h2.284v-2.284c0-1.264,1.022-2.286,2.287-2.286   c1.263,0,2.284,1.022,2.284,2.286v2.284h2.287C19.143,17.642,20.165,18.666,20.165,19.928L20.165,19.928z M30.1,22.283   c-1.263,0-2.282-1.023-2.282-2.286s1.02-2.286,2.282-2.286c1.266,0,2.285,1.023,2.285,2.286S31.365,22.283,30.1,22.283z    M34.77,26.854c-1.266,0-2.286-1.023-2.286-2.287c0-1.261,1.021-2.284,2.286-2.284c1.263,0,2.282,1.023,2.282,2.284   C37.052,25.83,36.032,26.854,34.77,26.854z M39.338,22.283c-1.263,0-2.286-1.023-2.286-2.286s1.023-2.286,2.286-2.286   c1.267,0,2.286,1.023,2.286,2.286S40.604,22.283,39.338,22.283z" fill="#241F20"/></g></svg>