<?xml version="1.0" ?><!DOCTYPE svg  PUBLIC '-//W3C//DTD SVG 1.1//EN'  'http://www.w3.org/Graphics/SVG/1.1/DTD/svg11.dtd'><svg height="128px" id="Layer_1" style="enable-background:new 0 0 128 128;" version="1.1" viewBox="0 0 128 128" width="128px" xml:space="preserve" xmlns="http://www.w3.org/2000/svg" xmlns:xlink="http://www.w3.org/1999/xlink"><g><path d="M81.103,37.67H46.436c-0.828,0-1.5-0.671-1.5-1.5v-5.006c0-3.584,2.916-6.5,6.5-6.5h24.667   c3.584,0,6.5,2.916,6.5,6.5v5.006C82.603,36.999,81.931,37.67,81.103,37.67z M47.936,34.67h31.667v-3.506c0-1.93-1.57-3.5-3.5-3.5   H51.436c-1.93,0-3.5,1.57-3.5,3.5V34.67z" style="fill:#EE3E36;"/></g><g><path d="M25.79,75.671c0.278,0.05,0.562,0.086,0.854,0.086C26.352,75.757,26.069,75.719,25.79,75.671z" style="fill:none;"/></g><g><path d="M102.865,75.596c0.134-0.034,0.265-0.077,0.394-0.122C103.129,75.518,103,75.563,102.865,75.596z" style="fill:none;"/></g><g><path d="M101.668,75.757c0.293,0,0.576-0.036,0.854-0.086C102.243,75.719,101.961,75.757,101.668,75.757z" style="fill:none;"/></g><g><path d="M25.054,75.474c0.13,0.045,0.26,0.088,0.394,0.122C25.313,75.563,25.184,75.518,25.054,75.474z" style="fill:none;"/></g><g><g><path d="M101.668,77.257H74.242c-0.828,0-1.5-0.671-1.5-1.5s0.672-1.5,1.5-1.5h27.426    c0.198,0,0.415-0.033,0.602-0.064c0.059-0.011,0.139-0.027,0.217-0.048c0.102-0.025,0.179-0.053,0.257-0.08    c0.287-0.1,0.508-0.2,0.696-0.312c1.083-0.643,1.729-1.763,1.729-2.996V41.17c0-1.93-1.57-3.5-3.5-3.5H26.645    c-1.93,0-3.5,1.57-3.5,3.5v29.586c0,1.233,0.646,2.354,1.727,2.996c0.19,0.113,0.411,0.212,0.678,0.306    c0.099,0.034,0.176,0.062,0.257,0.082c0.099,0.025,0.179,0.042,0.26,0.057c0.164,0.028,0.381,0.061,0.579,0.061h30.316    c0.828,0,1.5,0.671,1.5,1.5s-0.672,1.5-1.5,1.5H26.645c-0.426,0-0.815-0.058-1.107-0.107c-0.172-0.032-0.322-0.063-0.469-0.102    c-0.145-0.036-0.304-0.088-0.463-0.142c-0.505-0.176-0.904-0.359-1.268-0.575c-1.999-1.188-3.193-3.271-3.193-5.574V41.17    c0-3.584,2.916-6.5,6.5-6.5h75.023c3.584,0,6.5,2.916,6.5,6.5v29.586c0,2.303-1.194,4.387-3.195,5.575    c-0.361,0.215-0.761,0.398-1.219,0.559c-0.206,0.07-0.365,0.122-0.53,0.163c-0.126,0.033-0.276,0.065-0.426,0.093    C102.483,77.199,102.094,77.257,101.668,77.257z" style="fill:#313335;"/></g></g><g><g><path d="M46.176,70.883H32.035c-0.367,0-0.691-0.047-0.961-0.093c-0.156-0.029-0.284-0.056-0.41-0.089    c-0.133-0.033-0.276-0.08-0.418-0.129c-0.421-0.146-0.768-0.305-1.084-0.494c-1.737-1.031-2.774-2.842-2.774-4.844V53.696    c0-0.829,0.672-1.5,1.5-1.5s1.5,0.671,1.5,1.5v11.539c0,0.932,0.488,1.779,1.307,2.265c0.144,0.085,0.312,0.161,0.516,0.231    c0.067,0.023,0.13,0.046,0.196,0.063c0.075,0.02,0.139,0.032,0.201,0.043c0.12,0.021,0.271,0.045,0.428,0.045h14.141    c0.828,0,1.5,0.671,1.5,1.5S47.004,70.883,46.176,70.883z" style="fill:#EE3E36;"/></g><g><path d="    M71.522,69.383" style="fill:none;stroke:#EE3E36;stroke-width:3;stroke-linecap:round;stroke-linejoin:round;stroke-miterlimit:10;"/></g></g><g><g><path d="M41.918,97.97h-9.823c-0.256,0-0.499-0.03-0.742-0.071c-0.126-0.023-0.228-0.044-0.327-0.071    c-0.106-0.027-0.221-0.064-0.333-0.102c-0.313-0.109-0.58-0.232-0.827-0.379c-1.348-0.8-2.152-2.205-2.152-3.759v-8.017    c0-0.829,0.672-1.5,1.5-1.5s1.5,0.671,1.5,1.5v8.017c0,0.485,0.256,0.926,0.684,1.18c0.086,0.051,0.18,0.089,0.275,0.123    l0.101,0.033c0.159,0.032,0.238,0.047,0.322,0.047h9.823c0.828,0,1.5,0.671,1.5,1.5S42.746,97.97,41.918,97.97z" style="fill:#313335;"/></g></g><g><g><path d="M98.706,103.669h-69.1c-3.86,0-7.001-3.141-7.001-7.001V75.042c0-0.829,0.672-1.5,1.5-1.5    s1.5,0.671,1.5,1.5v21.626c0,2.206,1.795,4.001,4.001,4.001h69.1c2.206,0,4.001-1.795,4.001-4.001V75.042    c0-0.829,0.672-1.5,1.5-1.5s1.5,0.671,1.5,1.5v21.626C105.707,100.529,102.566,103.669,98.706,103.669z" style="fill:#313335;"/></g></g><g><g><path d="M103.259,76.975c-0.624,0-1.205-0.392-1.419-1.014c-0.268-0.78,0.146-1.63,0.924-1.902    c0.263-0.092,0.48-0.19,0.667-0.3c0.003-0.001,0.006-0.003,0.009-0.005v0v0c0,0,0,0,0.001,0l0,0    c0.708-0.422,1.632-0.191,2.056,0.522c0.424,0.711,0.19,1.632-0.521,2.056v0c0,0,0,0-0.001,0h0.001h-0.001    c-0.006,0.003-0.012,0.007-0.019,0.011l0,0l0,0c-0.001,0-0.002,0.001-0.002,0.001c-0.376,0.221-0.785,0.407-1.216,0.552    C103.578,76.949,103.417,76.975,103.259,76.975z M103.431,73.758l0.763,1.292L103.431,73.758z" style="fill:#313335;"/></g></g><g><g><path d="M25.792,77.171c-0.087,0-0.175-0.008-0.263-0.023c-0.078-0.014-0.154-0.029-0.23-0.046    c-0.077-0.017-0.154-0.035-0.23-0.055c-0.799-0.208-1.278-1.022-1.074-1.822c0.203-0.799,1.005-1.288,1.817-1.084l0.253,0.055    c0.813,0.151,1.349,0.93,1.201,1.742C27.135,76.663,26.503,77.171,25.792,77.171z" style="fill:#313335;"/></g></g><g><g><path d="M25.054,76.975c-0.158,0-0.319-0.025-0.479-0.079c-0.431-0.145-0.84-0.331-1.216-0.552    c0,0-0.001-0.001-0.002-0.001c-0.001-0.001-0.018-0.01-0.02-0.011l0,0c-0.712-0.424-0.945-1.345-0.521-2.056    c0.424-0.713,1.347-0.944,2.056-0.522c0.006,0.003,0.007,0.004,0.01,0.005c0.187,0.11,0.404,0.208,0.667,0.3    c0.778,0.272,1.191,1.122,0.924,1.902C26.26,76.583,25.678,76.975,25.054,76.975z" style="fill:#313335;"/></g></g><g><g><path d="M102.521,77.171c-0.711,0-1.343-0.508-1.474-1.233c-0.147-0.812,0.389-1.591,1.201-1.742    l0.254-0.055c0.801-0.204,1.612,0.285,1.816,1.084c0.204,0.8-0.275,1.614-1.074,1.823c-0.076,0.02-0.152,0.038-0.23,0.054    c-0.076,0.017-0.152,0.032-0.23,0.046C102.695,77.164,102.607,77.171,102.521,77.171z" style="fill:#313335;"/></g></g><g><path d="M70.786,82.346H60.417c-2.732,0-4.956-2.223-4.956-4.956v-5.825c0-2.733,2.224-4.956,4.956-4.956   h10.369c2.732,0,4.956,2.223,4.956,4.956v5.825C75.742,80.123,73.519,82.346,70.786,82.346z M60.417,69.609   c-1.078,0-1.956,0.877-1.956,1.956v5.825c0,1.079,0.878,1.956,1.956,1.956h10.369c1.078,0,1.956-0.877,1.956-1.956v-5.825   c0-1.079-0.878-1.956-1.956-1.956H60.417z" style="fill:#EE3E36;"/></g><rect height="128" id="_x3C_Slice_x3E__6_" style="fill:none;" width="128" x="0.5" y="0.5"/></svg>